HIERARCHY
ROOT Hips
{
	OFFSET -0.000008 104.274872 1.554316
	CHANNELS 6 Xposition Yposition Zposition Xrotation Yrotation Zrotation
	JOINT Spine
	{
		OFFSET -0.000005 10.181595 0.131521
		CHANNELS 6 Xposition Yposition Zposition Xrotation Yrotation Zrotation
		JOINT Spine1
		{
			OFFSET -0.000000 9.893959 -1.470711
			CHANNELS 6 Xposition Yposition Zposition Xrotation Yrotation Zrotation
			JOINT Spine2
			{
				OFFSET -0.000000 9.220757 -1.370642
				CHANNELS 3 Xrotation Yrotation Zrotation
				JOINT Neck
				{
					OFFSET 0.000001 16.740417 -2.049038
					CHANNELS 6 Xposition Yposition Zposition Xrotation Yrotation Zrotation
					JOINT Head
					{
						OFFSET 0.000000 9.617874 1.685009
						CHANNELS 6 Xposition Yposition Zposition Xrotation Yrotation Zrotation
						JOINT HeadTop_End
						{
							OFFSET 0.000002 22.037384 7.501098
							CHANNELS 6 Xposition Yposition Zposition Xrotation Yrotation Zrotation
							End Site
							{
								OFFSET 0.000002 23.106583 -2.828261
							}
						}
					}
				}
				JOINT RightShoulder
				{
					OFFSET -4.569969 11.014923 -2.160886
					CHANNELS 6 Xposition Yposition Zposition Xrotation Yrotation Zrotation
					JOINT RightArm
					{
						OFFSET -10.592850 -0.524811 -2.232100
						CHANNELS 3 Xrotation Yrotation Zrotation
						JOINT RightForeArm
						{
							OFFSET -27.841520 0.000015 -0.000005
							CHANNELS 6 Xposition Yposition Zposition Xrotation Yrotation Zrotation
							JOINT RightHand
							{
								OFFSET -28.328838 -0.000015 0.000018
								CHANNELS 6 Xposition Yposition Zposition Xrotation Yrotation Zrotation
								JOINT RightHandThumb1
								{
									OFFSET -2.464806 -1.573990 2.681853
									CHANNELS 6 Xposition Yposition Zposition Xrotation Yrotation Zrotation
									JOINT RightHandThumb2
									{
										OFFSET -3.215195 -1.872772 1.924282
										CHANNELS 6 Xposition Yposition Zposition Xrotation Yrotation Zrotation
										JOINT RightHandThumb3
										{
											OFFSET -2.654823 -1.527985 1.512609
											CHANNELS 6 Xposition Yposition Zposition Xrotation Yrotation Zrotation
											JOINT RightHandThumb4
											{
												OFFSET -2.018822 -1.152008 1.108055
												CHANNELS 3 Xrotation Yrotation Zrotation
												End Site
												{
													OFFSET -1.888100 -1.145340 1.324313
												}
											}
										}
									}
								}
								JOINT RightHandIndex1
								{
									OFFSET -9.108284 -0.517868 2.259835
									CHANNELS 6 Xposition Yposition Zposition Xrotation Yrotation Zrotation
									JOINT RightHandIndex2
									{
										OFFSET -3.699997 0.000000 0.001215
										CHANNELS 3 Xrotation Yrotation Zrotation
										JOINT RightHandIndex3
										{
											OFFSET -2.850014 0.000031 -0.000522
											CHANNELS 3 Xrotation Yrotation Zrotation
											JOINT RightHandIndex4
											{
												OFFSET -2.772179 -0.000015 -0.000019
												CHANNELS 3 Xrotation Yrotation Zrotation
												End Site
												{
													OFFSET -2.772186 0.000000 -0.000502
												}
											}
										}
									}
								}
								JOINT RightHandMiddle1
								{
									OFFSET -9.532509 -0.000046 -0.000025
									CHANNELS 6 Xposition Yposition Zposition Xrotation Yrotation Zrotation
									JOINT RightHandMiddle2
									{
										OFFSET -3.700012 0.000000 0.003713
										CHANNELS 3 Xrotation Yrotation Zrotation
										JOINT RightHandMiddle3
										{
											OFFSET -2.949989 0.000015 -0.002054
											CHANNELS 3 Xrotation Yrotation Zrotation
											JOINT RightHandMiddle4
											{
												OFFSET -2.946625 0.000000 -0.000154
												CHANNELS 3 Xrotation Yrotation Zrotation
												End Site
												{
													OFFSET -2.946632 0.000015 -0.001136
												}
											}
										}
									}
								}
								JOINT RightHandRing1
								{
									OFFSET -9.103600 -0.043076 -1.865135
									CHANNELS 6 Xposition Yposition Zposition Xrotation Yrotation Zrotation
									JOINT RightHandRing2
									{
										OFFSET -3.379272 0.000000 -0.001054
										CHANNELS 3 Xrotation Yrotation Zrotation
										JOINT RightHandRing3
										{
											OFFSET -2.889694 0.000015 0.000379
											CHANNELS 3 Xrotation Yrotation Zrotation
											JOINT RightHandRing4
											{
												OFFSET -2.638809 0.000000 0.000941
												CHANNELS 3 Xrotation Yrotation Zrotation
												End Site
												{
													OFFSET -2.638802 0.000000 0.005160
												}
											}
										}
									}
								}
								JOINT RightHandPinky1
								{
									OFFSET -8.076675 -0.486710 -3.806280
									CHANNELS 6 Xposition Yposition Zposition Xrotation Yrotation Zrotation
									JOINT RightHandPinky2
									{
										OFFSET -3.600006 -0.000031 -0.003747
										CHANNELS 3 Xrotation Yrotation Zrotation
										JOINT RightHandPinky3
										{
											OFFSET -2.099976 -0.000015 -0.005740
											CHANNELS 3 Xrotation Yrotation Zrotation
											JOINT RightHandPinky4
											{
												OFFSET -2.115776 -0.000031 -0.003680
												CHANNELS 3 Xrotation Yrotation Zrotation
												End Site
												{
													OFFSET -2.115776 -0.000015 -0.003507
												}
											}
										}
									}
								}
							}
						}
					}
				}
				JOINT LeftShoulder
				{
					OFFSET 4.570447 11.014725 -2.160858
					CHANNELS 6 Xposition Yposition Zposition Xrotation Yrotation Zrotation
					JOINT LeftArm
					{
						OFFSET 10.592371 -0.524597 -2.232121
						CHANNELS 3 Xrotation Yrotation Zrotation
						JOINT LeftForeArm
						{
							OFFSET 27.841520 -0.000015 0.000023
							CHANNELS 3 Xrotation Yrotation Zrotation
							JOINT LeftHand
							{
								OFFSET 28.328835 -0.000046 0.000017
								CHANNELS 6 Xposition Yposition Zposition Xrotation Yrotation Zrotation
								JOINT LeftHandThumb1
								{
									OFFSET 2.466141 -1.576187 2.681734
									CHANNELS 6 Xposition Yposition Zposition Xrotation Yrotation Zrotation
									JOINT LeftHandThumb2
									{
										OFFSET 3.217804 -1.872055 1.916487
										CHANNELS 6 Xposition Yposition Zposition Xrotation Yrotation Zrotation
										JOINT LeftHandThumb3
										{
											OFFSET 2.656021 -1.528809 1.514508
											CHANNELS 6 Xposition Yposition Zposition Xrotation Yrotation Zrotation
											JOINT LeftHandThumb4
											{
												OFFSET 2.020889 -1.154068 1.115132
												CHANNELS 6 Xposition Yposition Zposition Xrotation Yrotation Zrotation
												End Site
												{
													OFFSET 1.908852 -1.150833 1.300490
												}
											}
										}
									}
								}
								JOINT LeftHandIndex1
								{
									OFFSET 9.109306 -0.518036 2.259871
									CHANNELS 6 Xposition Yposition Zposition Xrotation Yrotation Zrotation
									JOINT LeftHandIndex2
									{
										OFFSET 3.699997 -0.000015 -0.000323
										CHANNELS 3 Xrotation Yrotation Zrotation
										JOINT LeftHandIndex3
										{
											OFFSET 2.850006 -0.000015 0.000350
											CHANNELS 3 Xrotation Yrotation Zrotation
											JOINT LeftHandIndex4
											{
												OFFSET 2.774857 -0.000015 -0.000027
												CHANNELS 3 Xrotation Yrotation Zrotation
												End Site
												{
													OFFSET 2.774864 0.000000 -0.000099
												}
											}
										}
									}
								}
								JOINT LeftHandMiddle1
								{
									OFFSET 9.533401 0.000031 0.000044
									CHANNELS 6 Xposition Yposition Zposition Xrotation Yrotation Zrotation
									JOINT LeftHandMiddle2
									{
										OFFSET 3.699997 0.000000 -0.000231
										CHANNELS 3 Xrotation Yrotation Zrotation
										JOINT LeftHandMiddle3
										{
											OFFSET 2.949997 -0.000015 -0.000059
											CHANNELS 3 Xrotation Yrotation Zrotation
											JOINT LeftHandMiddle4
											{
												OFFSET 2.952866 0.000000 0.000062
												CHANNELS 3 Xrotation Yrotation Zrotation
												End Site
												{
													OFFSET 2.952858 0.000000 0.000228
												}
											}
										}
									}
								}
								JOINT LeftHandRing1
								{
									OFFSET 9.104530 -0.043030 -1.865075
									CHANNELS 6 Xposition Yposition Zposition Xrotation Yrotation Zrotation
									JOINT LeftHandRing2
									{
										OFFSET 3.150009 0.000000 0.000042
										CHANNELS 3 Xrotation Yrotation Zrotation
										JOINT LeftHandRing3
										{
											OFFSET 2.949989 -0.000015 0.000040
											CHANNELS 3 Xrotation Yrotation Zrotation
											JOINT LeftHandRing4
											{
												OFFSET 2.644318 -0.000015 0.000056
												CHANNELS 6 Xposition Yposition Zposition Xrotation Yrotation Zrotation
												End Site
												{
													OFFSET 2.644318 0.000000 0.000120
												}
											}
										}
									}
								}
								JOINT LeftHandPinky1
								{
									OFFSET 8.077782 -0.486877 -3.806258
									CHANNELS 6 Xposition Yposition Zposition Xrotation Yrotation Zrotation
									JOINT LeftHandPinky2
									{
										OFFSET 3.599960 0.000031 0.014726
										CHANNELS 3 Xrotation Yrotation Zrotation
										JOINT LeftHandPinky3
										{
											OFFSET 2.099998 0.000031 0.007705
											CHANNELS 3 Xrotation Yrotation Zrotation
											JOINT LeftHandPinky4
											{
												OFFSET 2.125504 0.000000 0.007515
												CHANNELS 3 Xrotation Yrotation Zrotation
												End Site
												{
													OFFSET 2.125511 0.000015 0.006257
												}
											}
										}
									}
								}
							}
						}
					}
				}
			}
		}
	}
	JOINT RightUpLeg
	{
		OFFSET -8.207787 -6.751663 -1.599560
		CHANNELS 6 Xposition Yposition Zposition Xrotation Yrotation Zrotation
		JOINT RightLeg
		{
			OFFSET -0.000001 -44.370129 0.345939
			CHANNELS 3 Xrotation Yrotation Zrotation
			JOINT RightFoot
			{
				OFFSET 0.000001 -44.423679 -3.043537
				CHANNELS 3 Xrotation Yrotation Zrotation
				JOINT RightToeBase
				{
					OFFSET -0.000003 -8.728673 10.710563
					CHANNELS 6 Xposition Yposition Zposition Xrotation Yrotation Zrotation
					JOINT RightToe_End
					{
						OFFSET -0.000002 -0.000676 9.278122
						CHANNELS 6 Xposition Yposition Zposition Xrotation Yrotation Zrotation
						End Site
						{
							OFFSET -0.000003 -0.000676 9.278122
						}
					}
				}
			}
		}
	}
	JOINT LeftUpLeg
	{
		OFFSET 8.207791 -6.751694 -1.599555
		CHANNELS 6 Xposition Yposition Zposition Xrotation Yrotation Zrotation
		JOINT LeftLeg
		{
			OFFSET -0.000002 -44.370033 0.346957
			CHANNELS 3 Xrotation Yrotation Zrotation
			JOINT LeftFoot
			{
				OFFSET 0.000000 -44.423672 -3.044393
				CHANNELS 3 Xrotation Yrotation Zrotation
				JOINT LeftToeBase
				{
					OFFSET -0.000003 -8.728668 10.710562
					CHANNELS 6 Xposition Yposition Zposition Xrotation Yrotation Zrotation
					JOINT LeftToe_End
					{
						OFFSET -0.000003 -0.000676 9.278135
						CHANNELS 6 Xposition Yposition Zposition Xrotation Yrotation Zrotation
						End Site
						{
							OFFSET -0.000003 -0.000677 9.278135
						}
					}
				}
			}
		}
	}
}
MOTION
Frames: 4
Frame Time: 0.033333
39.582493 100.332886 64.761589 -58.872679 97.939216 65.165940 -0.000012 10.181604 0.131523 8.246770 -1.276619 -2.121490 -0.000005 9.893954 -1.470715 0.773453 -0.270304 1.023595 0.770028 -0.304168 1.032722 -0.000003 16.740396 -2.049031 -5.665303 -2.155911 2.734569 -0.000006 9.617881 1.685005 -26.053007 -23.394711 10.990003 0.000004 22.037354 7.501111 -0.000001 0.000002 -0.000001 -4.569970 11.014894 -2.160889 1.345432 18.171122 -0.253614 10.513843 44.844560 40.058148 -27.841518 0.000013 -0.000011 0.000078 96.398039 -0.000059 -28.328850 0.000009 0.000039 18.321723 -5.291048 39.516261 -2.464817 -1.573989 2.681839 -90.619186 -41.140654 14.879012 -3.215197 -1.872788 1.924280 3.467651 -6.461826 -35.563180 -2.654838 -1.527966 1.512596 -16.683077 -11.344942 -23.388639 0.000003 -0.000002 -0.000003 -9.108285 -0.517868 2.259824 4.726812 6.140470 10.598370 0.150960 -1.158665 14.741637 0.176760 -1.282696 15.823477 -0.000001 0.000000 -0.000001 -9.532517 -0.000004 -0.000028 -0.107821 -2.302428 14.890897 0.503718 -2.051538 27.362201 0.390847 -1.909238 23.653712 -0.000003 0.000000 -0.000001 -9.103596 -0.043039 -1.865140 0.350019 -3.989353 26.772246 0.572756 -2.257472 28.596047 0.442426 -1.975667 24.901866 -0.000002 -0.000007 -0.000003 -8.076703 -0.486696 -3.806292 2.559140 -7.210513 36.308159 0.196551 -1.408778 18.715644 1.053836 -3.110524 40.516723 -0.000002 -0.000002 0.000004 4.570452 11.014744 -2.160862 0.553902 -10.819844 -10.210334 13.640794 -20.651381 -30.268895 0.000113 -127.783537 0.000258 28.328831 -0.000062 0.000023 17.714873 -8.704318 -10.055634 2.466128 -1.576208 2.681743 -89.052860 45.652817 -11.608490 3.217816 -1.872039 1.916474 1.456716 3.283330 33.631059 2.656025 -1.528776 1.514481 -17.556282 3.133595 26.719813 2.020893 -1.154077 1.115138 -0.000004 -0.000004 -0.000005 9.109309 -0.518085 2.259872 4.311178 -6.128170 -13.015260 0.245801 1.685779 -16.570703 0.221626 1.590697 -15.799841 0.000001 -0.000000 0.000003 9.533406 0.000006 0.000038 -0.092717 2.709637 -16.871112 0.756983 2.885808 -29.437565 0.528598 2.435053 -24.493070 0.000003 0.000003 -0.000001 9.104543 -0.043054 -1.865084 0.508681 4.664871 -28.413102 0.830140 3.007354 -30.842699 0.590584 2.564666 -25.919345 2.644329 -0.000000 0.000045 -0.000000 -0.000000 0.000002 8.077803 -0.486904 -3.806274 2.893710 8.146443 -38.194793 0.486620 2.115070 -21.531644 1.605422 3.825199 -41.490370 0.000000 0.000001 -0.000001 -8.207793 -6.751671 -1.599565 -25.787248 -17.201722 -21.378644 65.350546 -8.847812 3.452256 -3.352188 -4.696549 -0.444804 -0.000001 -8.728670 10.710563 -13.870986 0.000003 -0.000003 -0.000006 -0.000675 9.278120 0.000002 0.000001 -0.000001 8.207786 -6.751695 -1.599564 -37.049548 2.843411 6.997190 25.210553 -7.295136 5.070013 15.627329 -2.139557 -13.951490 -0.000002 -8.728667 10.710563 1.026507 0.000046 0.000002 0.000001 -0.000678 9.278147 0.000003 -0.000000 0.000000 
35.959518 101.002106 66.896538 -123.772768 100.272388 131.121477 0.000000 10.181591 0.131518 9.726749 0.309965 -2.854505 0.000003 9.893959 -1.470705 0.802721 0.203384 1.151932 0.805488 0.157142 1.159909 0.000002 16.740410 -2.049036 -5.757697 -2.193034 2.137513 -0.000001 9.617884 1.685016 -27.665350 -25.081148 10.439442 0.000004 22.037369 7.501118 0.000000 0.000002 -0.000000 -4.569964 11.014933 -2.160895 1.225477 17.855545 -0.221619 5.577964 40.578775 46.949832 -27.841536 0.000005 -0.000001 0.000126 99.639524 -0.000100 -28.328850 -0.000010 0.000028 25.679517 -8.167793 39.215005 -2.464813 -1.574002 2.681842 -90.551895 -39.619540 16.288659 -3.215207 -1.872779 1.924275 4.330783 -7.655753 -36.293409 -2.654855 -1.527989 1.512614 -16.709069 -11.873813 -23.573652 -0.000001 0.000000 -0.000001 -9.108279 -0.517869 2.259830 4.914282 6.064099 9.852048 0.125825 -1.057706 13.464337 0.174803 -1.275753 15.734666 -0.000000 -0.000000 0.000001 -9.532527 -0.000010 -0.000034 -0.094210 -2.300519 14.231486 0.458261 -1.959434 26.099915 0.378012 -1.879597 23.256804 0.000004 0.000001 0.000001 -9.103596 -0.043060 -1.865139 0.365238 -4.012314 26.304556 0.521938 -2.162090 27.267715 0.424204 -1.936414 24.370100 -0.000003 -0.000007 -0.000002 -8.076674 -0.486714 -3.806288 2.605739 -7.321632 35.726783 0.158677 -1.276268 17.023966 1.030769 -3.082121 40.066805 0.000002 0.000001 -0.000002 4.570451 11.014732 -2.160860 0.135835 -14.415765 -14.354952 6.126914 -25.407624 -29.045455 0.000146 -124.907276 0.000293 28.328823 -0.000049 0.000026 19.222121 -5.488846 -14.999982 2.466144 -1.576209 2.681736 -89.392833 45.534033 -11.815322 3.217804 -1.872015 1.916477 2.492857 2.044111 33.842744 2.656006 -1.528805 1.514491 -17.535245 3.982786 26.519649 2.020889 -1.154063 1.115141 -0.000001 -0.000004 -0.000003 9.109305 -0.518051 2.259868 4.421562 -6.145905 -11.530645 0.214425 1.577042 -15.465616 0.209818 1.548355 -15.370659 -0.000000 -0.000000 0.000002 9.533406 0.000012 0.000035 -0.099563 2.561322 -15.465978 0.673475 2.732695 -27.731801 0.480250 2.326133 -23.328593 0.000002 -0.000000 0.000001 9.104527 -0.043055 -1.865082 0.533399 4.688714 -27.087260 0.734792 2.841820 -28.974397 0.528671 2.433291 -24.499559 2.644312 0.000016 0.000053 -0.000001 0.000002 -0.000001 8.077795 -0.486898 -3.806261 2.965870 8.384669 -36.438158 0.396919 1.897874 -19.236854 1.493731 3.704237 -39.878712 0.000001 0.000004 -0.000000 -8.207775 -6.751658 -1.599569 -29.485688 -12.083759 -21.444554 56.438943 -8.986126 2.218998 -4.123074 -7.098835 -0.206600 0.000003 -8.728666 10.710564 -20.962306 0.000033 -0.000001 -0.000003 -0.000676 9.278122 -0.000001 0.000000 0.000000 8.207798 -6.751698 -1.599558 -39.446784 2.391474 6.419276 40.219764 -0.229259 4.643225 7.055499 -0.972576 -16.092808 -0.000006 -8.728666 10.710566 -1.487743 0.000007 -0.000002 -0.000000 -0.000677 9.278141 0.000002 -0.000000 -0.000000 
32.486946 100.608032 68.982689 -149.562360 110.877138 155.731373 -0.000015 10.181578 0.131523 10.560059 0.827608 -2.112226 0.000002 9.893956 -1.470713 0.894801 0.297107 0.985738 0.899770 0.252388 0.992602 0.000005 16.740410 -2.049035 -5.173349 -2.145628 2.789310 -0.000004 9.617872 1.685010 -27.155715 -23.544205 11.957688 -0.000004 22.037338 7.501097 -0.000000 -0.000001 -0.000000 -4.569966 11.014956 -2.160893 1.571498 20.420188 -0.391912 -1.246997 37.291463 52.864896 -27.841526 0.000013 0.000001 0.000197 100.417557 -0.000175 -28.328840 0.000012 0.000021 32.502323 -11.222778 23.748800 -2.464810 -1.573990 2.681846 -90.427197 -37.856634 17.800002 -3.215206 -1.872758 1.924272 5.333749 -8.984921 -37.083050 -2.654839 -1.527979 1.512610 -16.742011 -12.524280 -23.794156 -0.000000 -0.000004 -0.000001 -9.108296 -0.517858 2.259827 5.103968 6.021055 8.949460 0.097910 -0.932247 11.886308 0.170090 -1.258937 15.520317 -0.000002 -0.000001 0.000000 -9.532522 -0.000000 -0.000025 -0.082140 -2.279874 13.390882 0.404395 -1.842982 24.523422 0.361133 -1.839784 22.725615 -0.000000 0.000003 0.000001 -9.103605 -0.043054 -1.865136 0.383147 -4.040556 25.660384 0.461912 -2.041924 25.616580 0.399968 -1.882632 23.645328 0.000002 -0.000000 0.000004 -8.076683 -0.486705 -3.806283 2.656361 -7.464254 34.917491 0.117409 -1.111581 14.940156 0.997183 -3.039986 39.404048 -0.000004 -0.000000 0.000002 4.570450 11.014736 -2.160867 -0.072887 -15.267168 -16.010925 -0.637879 -25.010628 -31.942903 0.000121 -124.260143 0.000288 28.328835 -0.000045 0.000015 26.080828 -4.749752 -24.215737 2.466135 -1.576202 2.681756 -89.257923 45.428029 -12.483422 3.217796 -1.872031 1.916489 3.874707 0.388046 34.229821 2.656028 -1.528795 1.514512 -17.513223 5.101714 26.360253 2.020889 -1.154079 1.115153 -0.000001 0.000001 -0.000003 9.109299 -0.518060 2.259873 4.585880 -6.185163 -9.519896 0.178433 1.441316 -14.094408 0.197459 1.502673 -14.908508 -0.000000 -0.000000 -0.000001 9.533396 0.000004 0.000048 -0.102782 2.367283 -13.621251 0.572587 2.531582 -25.532038 0.419117 2.179121 -21.772550 0.000000 -0.000002 -0.000001 9.104526 -0.043063 -1.865072 0.565140 4.734907 -25.366984 0.619154 2.622484 -26.549589 0.452905 2.259879 -22.649922 2.644342 0.000017 0.000056 -0.000000 -0.000004 -0.000000 8.077777 -0.486873 -3.806254 3.022505 8.765457 -34.131951 0.293048 1.609350 -16.243110 1.354965 3.543921 -37.803912 0.000001 -0.000001 -0.000001 -8.207798 -6.751673 -1.599566 -30.002989 -4.712396 -17.565537 44.940999 -9.982641 3.219173 4.040318 -20.147789 13.528142 -0.000005 -8.728668 10.710571 -17.811395 0.000004 -0.000005 -0.000006 -0.000676 9.278131 0.000000 -0.000000 0.000000 8.207787 -6.751697 -1.599561 -42.353033 3.926057 9.106791 57.030915 -0.831613 2.258709 2.358200 -0.259571 -13.722874 -0.000007 -8.728674 10.710559 -2.212102 0.000011 -0.000005 -0.000007 -0.000676 9.278135 0.000006 0.000000 -0.000000 
29.360662 99.043869 70.895378 -157.099009 121.637131 161.315299 -0.000006 10.181590 0.131515 10.907832 -0.326605 -0.429771 0.000001 9.893962 -1.470709 0.783572 -0.105461 0.715529 0.783055 -0.135846 0.722463 -0.000003 16.740402 -2.049027 -3.868807 -2.058441 4.286903 -0.000003 9.617873 1.685019 -26.182408 -20.427265 12.764819 -0.000002 22.037354 7.501104 -0.000002 0.000002 0.000001 -4.569971 11.014915 -2.160882 0.686621 22.974405 9.112330 -4.348901 33.225117 49.229234 -27.841522 0.000007 -0.000004 0.000139 99.417891 -0.000115 -28.328854 0.000021 0.000042 31.256585 -9.929940 22.142497 -2.464818 -1.574008 2.681844 -90.263381 -36.084948 19.244493 -3.215192 -1.872782 1.924281 6.340418 -10.241481 -37.846693 -2.654846 -1.527991 1.512619 -16.778153 -13.234615 -24.023520 -0.000001 -0.000000 -0.000004 -9.108293 -0.517865 2.259838 5.275121 5.999817 7.945761 0.070373 -0.788794 10.092647 0.162825 -1.232508 15.183668 0.000001 0.000002 -0.000001 -9.532502 -0.000034 -0.000025 -0.071588 -2.242903 12.414673 0.346321 -1.707084 22.707739 0.341136 -1.791200 22.079980 -0.000000 -0.000001 0.000001 -9.103595 -0.043076 -1.865131 0.401196 -4.070903 24.861156 0.397228 -1.901799 23.720267 0.371209 -1.816372 22.757726 0.000001 0.000002 0.000000 -8.076680 -0.486706 -3.806278 2.698683 -7.624299 33.905742 0.078012 -0.923656 12.583764 0.953919 -2.984173 38.535767 0.000001 -0.000001 -0.000002 4.570452 11.014689 -2.160849 -0.324031 -16.875838 -17.421379 -3.100320 -24.054610 -33.350817 0.000128 -124.235308 0.000282 28.328821 -0.000046 0.000003 40.059305 -1.725028 -23.438230 2.466156 -1.576208 2.681742 -88.880473 45.312995 -13.430969 3.217808 -1.872019 1.916483 5.486413 -1.544716 34.828313 2.656018 -1.528820 1.514507 -17.497223 6.413870 26.232550 2.020905 -1.154062 1.115115 -0.000000 -0.000002 -0.000006 9.109314 -0.518041 2.259874 4.788401 -6.237854 -7.133170 0.140899 1.283460 -12.510225 0.184310 1.452373 -14.401047 -0.000001 -0.000002 0.000003 9.533420 0.000008 0.000047 -0.098448 2.139819 -11.451921 0.464488 2.291651 -22.959710 0.352027 2.003249 -19.933098 -0.000002 0.000000 -0.000002 9.104541 -0.043054 -1.865072 0.594396 4.798127 -23.350426 0.495615 2.359442 -23.708599 0.371213 2.053403 -20.480073 2.644305 -0.000018 0.000059 -0.000001 -0.000001 -0.000001 8.077785 -0.486885 -3.806260 3.033793 9.250351 -31.414181 0.190569 1.264297 -12.729844 1.200275 3.350288 -35.379099 -0.000001 0.000001 -0.000001 -8.207788 -6.751678 -1.599571 -33.426464 -0.180685 -13.066189 41.563853 -10.490815 4.473985 7.791278 -27.873145 21.192072 -0.000004 -8.728659 10.710567 -18.441188 0.000009 0.000001 0.000000 -0.000676 9.278112 -0.000000 0.000001 -0.000000 8.207790 -6.751704 -1.599567 -44.802940 4.920573 11.138800 70.796475 -5.717286 0.710742 0.644147 0.042416 -12.579747 -0.000007 -8.728669 10.710553 -0.916629 0.000024 -0.000004 -0.000008 -0.000679 9.278143 0.000006 0.000000 -0.000000 
